<svg xmlns="http://www.w3.org/2000/svg" width="84" height="31" viewBox="0 0 84 31" fill="none">
  <path d="M15.9226 17.6918C15.9226 18.8288 15.657 19.8151 15.1126 20.6644C13.9441 22.4041 11.9389 23.2671 9.07064 23.2671C7.11863 23.2671 5.43219 22.8014 4.03789 21.8836C2.48424 20.8425 1.70078 19.4452 1.6875 17.6918H5.89696C5.89696 18.4726 6.22893 19.0753 6.8796 19.5274C7.46388 19.911 8.18095 20.1027 9.03081 20.1027C9.78771 20.1027 10.4384 19.9521 10.9828 19.6507C11.5405 19.3356 11.8194 18.9247 11.8194 18.4178C11.8194 17.7603 10.9961 17.2397 9.3495 16.8562C6.90616 16.2808 5.36579 15.8288 4.7284 15.5137C3.0818 14.6918 2.2585 13.4315 2.2585 11.7329C2.2585 10.7329 2.49752 9.82877 2.96229 9.00685C3.42705 8.18493 4.21052 7.54109 5.31268 7.06164C6.41484 6.56849 7.60995 6.30822 8.88474 6.30822C10.6243 6.30822 12.0983 6.73287 13.2801 7.59589C14.6346 8.55479 15.3649 9.91096 15.4579 11.6781H11.421C11.2086 10.2534 10.2923 9.5548 8.68555 9.5548C8.0216 9.5548 7.4506 9.70548 6.97256 10.0068C6.49451 10.3082 6.24221 10.6918 6.24221 11.1438C6.24221 11.7466 7.07879 12.2397 8.73867 12.6096C11.1555 13.1712 12.7224 13.6233 13.4129 13.9521C15.086 14.7877 15.9226 16.0342 15.9226 17.6918ZM36.2263 22.7877H32.1231V13.1301C32.1231 12.0069 31.9637 11.226 31.6317 10.7603C31.2201 10.226 30.503 9.95205 29.454 9.95205C27.3426 9.95205 26.2803 11.1849 26.2803 13.637V22.7877H22.1771V6.80137H26.0944V8.29452C26.0944 8.86986 26.1076 9.15754 26.1209 9.15754C26.1209 9.14384 26.1342 9.13014 26.1475 9.13014C26.6255 8.25342 27.316 7.56849 28.2057 7.08904C29.122 6.59589 30.0781 6.33562 31.0873 6.33562C33.1455 6.33562 34.6328 7.17123 35.5623 8.82876C35.9873 9.62329 36.1997 10.5822 36.1997 11.7055L36.2263 22.7877ZM51.4308 17.6918C51.4308 18.8288 51.1652 19.8151 50.6208 20.6644C49.4522 22.4041 47.4471 23.2671 44.5788 23.2671C42.6268 23.2671 40.9403 22.8014 39.546 21.8836C37.9924 20.8425 37.2089 19.4452 37.1956 17.6918H41.4051C41.4051 18.4726 41.7371 19.0753 42.3877 19.5274C42.972 19.911 43.6891 20.1027 44.539 20.1027C45.2959 20.1027 45.9465 19.9521 46.491 19.6507C47.0487 19.3356 47.3276 18.9247 47.3276 18.4178C47.3276 17.7603 46.5042 17.2397 44.8577 16.8562C42.4143 16.2808 40.8739 15.8288 40.2365 15.5137C38.5899 14.6918 37.7666 13.4315 37.7666 11.7329C37.7666 10.7329 38.0057 9.82877 38.4704 9.00685C38.9352 8.18493 39.7187 7.54109 40.8208 7.06164C41.923 6.56849 43.1181 6.30822 44.3929 6.30822C46.1324 6.30822 47.6064 6.73287 48.7882 7.59589C50.1427 8.55479 50.8731 9.91096 50.966 11.6781H46.9159C46.7034 10.2534 45.7872 9.5548 44.1804 9.5548C43.5165 9.5548 42.9455 9.70548 42.4674 10.0068C41.9894 10.3082 41.7371 10.6918 41.7371 11.1438C41.7371 11.7466 42.5737 12.2397 44.2335 12.6096C46.6503 13.1712 48.2172 13.6233 48.9078 13.9521C50.5942 14.7877 51.4308 16.0342 51.4308 17.6918ZM66.2236 22.7877H62.4125C62.293 22.5685 62.1735 22.1438 62.0407 21.5C61.0846 22.5822 59.5841 23.1164 57.5126 23.1164C56.0784 23.1164 54.8966 22.774 53.9671 22.1027C52.8782 21.3082 52.3337 20.1438 52.3337 18.6233C52.3337 16.4452 53.1571 14.9384 54.8036 14.1301C55.5606 13.7466 57.1009 13.4041 59.4248 13.1164C61.0714 12.8973 61.8947 12.4315 61.8947 11.7329C61.8947 11.1164 61.6424 10.6233 61.1378 10.2671C60.6597 9.88356 60.0754 9.69178 59.4248 9.69178C58.7475 9.69178 58.1632 9.88356 57.6852 10.2671C57.2337 10.6233 56.9416 11.089 56.8088 11.6781H52.8516C52.9711 10.5411 53.2898 9.60959 53.728 8.88356C54.2326 8.08904 55.0294 7.4589 56.1448 7.02055C57.1673 6.62329 58.3359 6.41781 59.6372 6.41781C64.0326 6.4589 66.2369 8.62329 66.2369 12.9247L66.2236 22.7877ZM61.8947 14.9931C61.483 15.3356 60.7659 15.6096 59.7435 15.8014C58.5749 16.0205 57.8313 16.226 57.4727 16.4315C56.7557 16.8151 56.3971 17.4726 56.3971 18.4041C56.3971 19.6096 57.008 20.1986 58.2296 20.1986C58.7874 20.1986 59.3716 20.0753 59.9692 19.8151C60.5667 19.5411 61.0315 19.2123 61.3369 18.8288C61.7486 18.3082 61.9478 17.5411 61.9478 16.5137C61.9478 16.3356 61.9345 16.0753 61.9212 15.7329C61.9079 15.4041 61.8947 15.1575 61.8947 14.9931ZM16.8787 0.5H20.9819V4.73288H16.8787V0.5ZM16.8787 14.8014H20.9819V22.7877H16.8787V14.8014ZM81.3617 23.6918C81.3617 25.8151 80.6314 27.5137 79.1574 28.7877C77.8029 29.9247 76.1696 30.5 74.2707 30.5C72.4117 30.5 70.8447 29.9384 69.5567 28.8151C68.1358 27.5548 67.432 25.8425 67.432 23.6644H71.2431C71.2431 24.6781 71.5352 25.4863 72.1195 26.0616C72.6241 26.5822 73.2615 26.8425 74.0317 26.8425C74.8815 26.8425 75.6252 26.5411 76.2758 25.9384C76.9531 25.2534 77.2983 24.363 77.2983 23.2671V20.8151C77.0062 21.5411 76.475 22.089 75.7048 22.5C74.9479 22.8973 74.0981 23.1027 73.142 23.1027C71.6282 23.1027 70.3401 22.637 69.2778 21.7192C68.0561 20.6644 67.4453 19.1986 67.4453 17.3356V6.81507H71.5485V16.7055C71.5485 18.6781 72.4249 19.6781 74.1645 19.6781C75.094 19.6781 75.8509 19.4041 76.4352 18.8425C77.0195 18.2808 77.3116 17.5685 77.3116 16.7192V6.82877H81.375L81.3617 23.6918Z" fill="#16181D"/>
</svg>
